<svg xmlns="http://www.w3.org/2000/svg" width="457.477" height="457.477"><polygon fill="#8755A3" points="271.496,75.541 342.9,74.895 298.161,149.262"/><polygon fill="#8755A3" points="311.327,181.038 353.496,293.454 439.771,349.333"/><polygon fill="#8755A3" points="173.111,320.204 121.998,438.807 226.414,320.042"/><polyline fill="#8755A3" points="311.327,376.542 239.328,320.042 289.494,320.208"/><polygon fill="#B155A1" points="88.105,384.299 137.996,384.299 113.05,445.401"/><polygon fill="#B155A1" points="117.829,278.459 81.496,376.87 22.139,356.538"/><polygon fill="#DE489A" points="15.394,353.018 75.496,244.579 121.998,265.538"/><polygon fill="#8755A3" points="376.328,386.434 359.83,440.704 269.496,415.87"/><polygon fill="#DE489A" points="312.248,170.238 393.814,276.754 388.663,215.537"/><polygon fill="#B155A1" points="394.996,213.706 402.911,288.54 439.663,336.54"/><polygon fill="#8755A3" points="394.996,186.201 406.397,57.583 440.272,110.395"/><polygon fill="#DE489A" points="394.029,191.199 444.397,199.26 444.397,328.926"/><polygon fill="#B155A1" points="14.397,247.77 15.394,339.409 69.083,240.872"/><polygon fill="#B155A1" points="192.652,74.874 174.335,125.603 123.535,20.874"/><polygon fill="#8755A3" points="197.339,68.477 257.526,11.351 123.996,11.351"/><polygon fill="#DE489A" points="201.891,445.401 253.33,418.18 349.663,445.27"/><polygon fill="#B155A1" points="400.349,333.37 368.766,436.537 444.85,361.204"/><line fill="#F0DB4E" x1="15.394" y1="363.905" x2="99.663" y2="444.868"/><polygon fill="#8755A3" points="120.03,119.372 170.163,136.856 126.107,255.333"/><polyline fill="#8755A3" points="14.397,240.747 66.496,233.359 15.394,166.828"/><polygon fill="#8755A3" points="108.371,11.351 63.083,55.453 79.997,11.351"/><polygon fill="#DE489A" points="306.837,147.958 403.272,52.02 383.513,20.895"/><polygon fill="#DE489A" points="158.996,404.588 177.996,445.401 125.996,445.401"/><polygon fill="#B155A1" points="228.996,327.665 182.397,438.807 165.009,400.37"/><polygon fill="#DE489A" points="236.664,327.665 192.652,433.403 265.746,349.829"/><polygon fill="#DE489A" points="57.996,68.156 20.505,162.203 70.015,226.41"/><polygon fill="#8755A3" points="26.746,365.954 79.742,383.493 103.25,438.807"/><polygon fill="#B155A1" points="270.636,354.372 193.997,442.87 308.496,383.237"/><polygon fill="#B155A1" points="190.664,264.159 269.774,264 230.219,145.989"/><polygon fill="#DE489A" points="108.201,19.911 66.496,61.203 118.301,234.538"/><polygon fill="#B155A1" points="67.125,88.665 78.546,238.081 117.094,255.706"/><polygon fill="#B155A1" points="114.996,17.873 118.916,110.872 167.566,128.486"/><polygon fill="#DE489A" points="394.029,328.374 381.498,369.702 357.525,304.409"/><polygon fill="#B155A1" points="305.527,158.87 385.663,205.075 361.397,104.27"/><polygon fill="#B155A1" points="368.022,97.27 398.417,67.145 388.663,186.201"/><polygon fill="#DE489A" points="265.861,11.351 206.897,69.223 302.914,68.057"/><path fill="#F0DB4E" d="M253.957 321.536"/><path fill="#F0DB4E" d="M123.861 262.363"/><path fill="#F0DB4E" d="M16.169 213.799"/><path fill="#F0DB4E" d="M12.998 351.206"/><path fill="#F0DB4E" d="M74.685 238.081"/><path fill="#F0DB4E" d="M15.394 357.643"/><path fill="#F0DB4E" d="M127.331 265.872"/><path fill="#F0DB4E" d="M86.332 382.139"/><path fill="#F0DB4E" d="M15.394 357.858"/><path fill="#F0DB4E" d="M82.693 383.493"/><path fill="#F0DB4E" d="M197.339 73.203"/><path fill="#F0DB4E" d="M109.829 444.868"/><path fill="#F0DB4E" d="M82.693 380.52"/><path fill="#F0DB4E" d="M122.996 262.363"/><path fill="#F0DB4E" d="M111.193 11.351"/><path fill="#F0DB4E" d="M175.996 134.705"/><path fill="#F0DB4E" d="M116.013 113.871"/><path fill="#F0DB4E" d="M174.615 134.705"/><path fill="#F0DB4E" d="M115.876 11.351"/><path fill="#F0DB4E" d="M105.996 446.206"/><path fill="#F0DB4E" d="M16.33 360.374"/><path fill="#F0DB4E" d="M121.998 258.436"/><path fill="#F0DB4E" d="M63.083 62.703"/><path fill="#F0DB4E" d="M74.685 238.081"/><path fill="#F0DB4E" d="M16.169 162.203"/><path fill="#F0DB4E" d="M74.685 239.204"/><path fill="#F0DB4E" d="M61.746 65.703"/><path fill="#F0DB4E" d="M76.621 11.351"/><path fill="#F0DB4E" d="M16.169 162.203"/><path fill="#F0DB4E" d="M111.304 13.724"/><path fill="#F0DB4E" d="M60.246 62.703"/><path fill="#F0DB4E" d="M145.381 382.268"/><path fill="#F0DB4E" d="M86.332 382.139"/><polygon fill="#B155A1" points="275.652,407.471 317.315,385.432 356.496,384.954"/><path fill="#F0DB4E" d="M297.746 316.542"/><path fill="#F0DB4E" d="M164.496 316.542"/><path fill="#F0DB4E" d="M114.746 447.704"/><path fill="#F0DB4E" d="M170.996 316.542"/><path fill="#F0DB4E" d="M234.121 316.542"/><path fill="#F0DB4E" d="M118.996 447.704"/><path fill="#F0DB4E" d="M181.33 445.27"/><path fill="#F0DB4E" d="M160.806 400.069"/><path fill="#F0DB4E" d="M182.746 447.704"/><path fill="#F0DB4E" d="M236.664 319.137"/><path fill="#F0DB4E" d="M314.694 383.493"/><path fill="#F0DB4E" d="M234.663 321.536"/><path fill="#F0DB4E" d="M269.496 350.704"/><path fill="#F0DB4E" d="M187.093 445.27"/><path fill="#F0DB4E" d="M317.315 382.124"/><path fill="#F0DB4E" d="M192.652 446.206"/><path fill="#F0DB4E" d="M361.544 444.868"/><path fill="#F0DB4E" d="M253.33 414.85"/><path fill="#F0DB4E" d="M381.498 381.514"/><path fill="#F0DB4E" d="M262.246 413.87"/><path fill="#F0DB4E" d="M398.417 326.661"/><path fill="#F0DB4E" d="M361.544 446.206"/><path fill="#F0DB4E" d="M381.498 381.514"/><path fill="#F0DB4E" d="M317.315 382.124"/><path fill="#F0DB4E" d="M317.315 382.124"/><path fill="#F0DB4E" d="M291.997 316.542"/><path fill="#F0DB4E" d="M381.373 378.454"/><path fill="#F0DB4E" d="M266.886 74.158"/><path fill="#F0DB4E" d="M363.769 445.401"/><path fill="#F0DB4E" d="M348.546 294.643"/><path fill="#F0DB4E" d="M297.746 157.75"/><path fill="#F0DB4E" d="M443.965 11.351"/><path fill="#F0DB4E" d="M302.685 157.75"/><path fill="#F0DB4E" d="M390.664 213.799"/><path fill="#F0DB4E" d="M363.769 94.453"/><path fill="#F0DB4E" d="M391.508 212.204"/><path fill="#F0DB4E" d="M297.746 157.75"/><path fill="#F0DB4E" d="M399.396 290.133"/><path fill="#F0DB4E" d="M388.663 186.201"/><path fill="#F0DB4E" d="M390.664 191.199"/><path fill="#F0DB4E" d="M443.398 188.887"/><path fill="#F0DB4E" d="M391.508 187.352"/><path fill="#F0DB4E" d="M391.508 187.352"/><path fill="#F0DB4E" d="M443.965 11.351"/><path fill="#F0DB4E" d="M297.746 157.75"/><path fill="#F0DB4E" d="M368.61 11.351"/><path fill="#F0DB4E" d="M264.169 77.765"/><path fill="#F0DB4E" d="M262.528 11.351"/><path fill="#F0DB4E" d="M368.61 11.351"/><path fill="#F0DB4E" d="M266.886 74.158"/><path fill="#F0DB4E" d="M266.886 74.158"/><path fill="#F0DB4E" d="M196.404 74.158"/><path fill="#F0DB4E" d="M197.339 73.203"/><path fill="#F0DB4E" d="M118.916 11.351"/><path fill="#F0DB4E" d="M262.528 11.351"/><path fill="#F0DB4E" d="M197.339 73.203"/><polygon fill="#B155A1" points="272.396,10.895 312.147,68.477 338.776,68.895"/><polyline fill="#B155A1" points="283.397,10.895 381.369,10.895 347.206,67.145"/><path fill="#F0DB4E" d="M291.997 195.895"/><path fill="#DE489A" d="M435.24 445.67c5.094-1.071 9.157-5.934 9.157-11.775v-64.324l-75.178 76.214 66.021-.115z"/><path fill="#B155A1" d="M16.089 436.472c1.12 5.083 6.021 9.1 11.862 9.044l71.711-.648-84.269-80.963.696 72.567z"/><path fill="#B155A1" d="M24.232 10.895c-5.044 1-9.292 5.807-9.048 11.644l.21 129.399 57.553-141.043h-48.715z"/><path fill="#B155A1" d="M433.781 10.895c5.028.623 10.936 3.104 10.616 7.125v86.25l-59.222-93.375h48.606z"/><path fill="#F0DB4E" d="M442.41 107.645"/><path fill="#F0DB4E" d="M381.513 11.395"/><path fill="#F0DB4E" d="M300.397 152.395"/><path fill="#F0DB4E" d="M384.522 12.02"/><path fill="#F0DB4E" d="M303.772 156.518"/><path fill="#F0DB4E" d="M348.223 72.591"/><path fill="#F0DB4E" d="M278.397 11.395"/><polygon fill="#B155A1" points="402.772,186.77 444.397,193.02 444.397,116.27"/><line fill="#fff" x1="192.652" y1="74.874" x2="81.496" y2="376.87"/></svg>